<svg width="24.000000" height="24.000000" viewBox="0 0 24 24" fill="none" xmlns="http://www.w3.org/2000/svg" xmlns:xlink="http://www.w3.org/1999/xlink">
	<desc>
			Created with Pixso.
	</desc>
	<defs>
		<clipPath id="clip351_761">
			<rect id="bx:bxl-linkedin" width="24.000000" height="24.000000" transform="translate(-0.500000 -0.500000)" fill="white" fill-opacity="0"/>
		</clipPath>
	</defs>
	<rect id="bx:bxl-linkedin" width="24.000000" height="24.000000" transform="translate(-0.500000 -0.500000)" fill="#FFFFFF" fill-opacity="0"/>
	<g clip-path="url(#clip351_761)">
		<path id="Vector" d="M6.67 4.5C6.67 5.71 5.69 6.69 4.48 6.69C3.27 6.69 2.29 5.71 2.29 4.5C2.29 3.3 3.27 2.32 4.48 2.32C5.69 2.32 6.67 3.3 6.67 4.5Z" fill="#0A66C2" fill-opacity="1.000000" fill-rule="evenodd"/>
		<path id="Vector" d="M8.73 8.35L8.73 20.49L12.5 20.49L12.5 14.49C12.5 12.9 12.8 11.37 14.76 11.37C16.7 11.37 16.72 13.18 16.72 14.59L16.72 20.49L20.49 20.49L20.49 13.83C20.49 10.56 19.79 8.05 15.97 8.05C14.13 8.05 12.9 9.06 12.4 10.01L12.35 10.01L12.35 8.35L8.73 8.35ZM2.59 8.35L6.36 8.35L6.36 20.49L2.59 20.49L2.59 8.35Z" fill="#0A66C2" fill-opacity="1.000000" fill-rule="nonzero"/>
	</g>
</svg>
